#!OML:ASF X:\für Bonn\!DataBase\2005_08_12_Daniel\c3d\Daniel.ASF
:FULLY-SPECIFIED
:DEGREES
245
root 14.003 1.65845 0.652384 -654.277 -87.8617 -149.707
lowerback 61.4982 -4.55071 8.04338
upperback 14.7585 -4.93671 -2.63294
thorax -5.09175 -3.81334 -4.1078
lowerneck -0.117597 5.53122 -5.16009
upperneck 0.321982 7.27497 -5.35779
head 0.136701 3.56004 -0.783405
rclavicle 2.99295e-014 5.72997e-014
rhumerus -74.0766 17.0654 -105.357
rradius 49.8059
rwrist 11.5261
rhand -59.7782 -307.108
rfingers 7.12502
rthumb -31.9406 -334.326
lclavicle 2.99295e-014 5.72997e-014
lhumerus -416.404 6.25331 -276.852
lradius 60.6537
lwrist 17.3129
lhand -57.9693 349.829
lfingers 7.12502
lthumb -30.2166 377.377
rfemur 135.794 -165.887 194.497
rtibia 78.5087
rfoot 36.9812 -7.70305
rtoes 14.7965
lfemur -58.446 20.8464 -22.5257
ltibia 102.52
lfoot 30.2768 9.1715
ltoes 7.77861
246
root 14.0055 1.65594 0.650443 -651.519 -87.9142 -152.592
lowerback 61.0192 -4.54893 8.08352
upperback 14.8693 -4.935 -2.68392
thorax -4.96939 -3.79488 -4.20038
lowerneck 0.150199 5.68212 -4.96339
upperneck 0.417313 7.45992 -5.59846
head 0.139845 3.65069 -0.893722
rclavicle 5.39825e-015 2.90474e-014
rhumerus -73.7571 17.6313 -104.872
rradius 50.3527
rwrist 11.0749
rhand -59.3846 -308.15
rfingers 7.12502
rthumb -31.5658 -335.442
lclavicle 5.39825e-015 2.90474e-014
lhumerus -416.266 6.24965 -277.375
lradius 61.3606
lwrist 16.8117
lhand -56.889 350.142
lfingers 7.12502
lthumb -29.1855 377.874
rfemur 135.989 -166.123 194.455
rtibia 78.3282
rfoot 36.4326 -7.77298
rtoes 14.0745
lfemur -58.024 20.7137 -22.2423
ltibia 102
lfoot 30.2172 9.2161
ltoes 7.84188
247
root 14.0108 1.65448 0.648935 -647.835 -87.9363 -156.426
lowerback 60.5771 -4.54041 8.14921
upperback 14.9815 -4.91062 -2.72811
thorax -4.84061 -3.76653 -4.30575
lowerneck 0.353905 5.82571 -4.78007
upperneck 0.536413 7.6429 -5.8021
head 0.159424 3.73893 -0.988874
rclavicle -2.01394e-014 1.2424e-015
rhumerus -73.237 18.1607 -104.34
rradius 50.7823
rwrist 10.5621
rhand -58.992 -309.549
rfingers 7.12502
rthumb -31.1917 -336.914
lclavicle -2.01394e-014 1.2424e-015
lhumerus -415.969 6.22512 -277.886
lradius 61.9128
lwrist 16.2285
lhand -55.6391 350.329
lfingers 7.12502
lthumb -27.9913 378.261
rfemur 136.22 -166.384 194.446
rtibia 78.1311
rfoot 35.9858 -7.84941
rtoes 13.6676
lfemur -57.5533 20.5897 -21.9031
ltibia 101.467
lfoot 30.1066 9.26576
ltoes 7.8973
248
root 14.0131 1.65198 0.646011 -644.301 -87.9628 -160.138
lowerback 60.1655 -4.51716 8.16426
upperback 15.0824 -4.898 -2.75901
thorax -4.72404 -3.74864 -4.36833
lowerneck 0.554793 5.98071 -4.63715
upperneck 0.634239 7.83968 -5.99948
head 0.172024 3.83454 -1.07659
rclavicle -1.41883e-014 1.88348e-014
rhumerus -72.7021 18.7787 -103.834
rradius 51.2644
rwrist 10.0431
rhand -58.5885 -311.423
rfingers 7.12502
rthumb -30.8071 -338.861
lclavicle -1.41883e-014 1.88348e-014
lhumerus -415.586 6.2515 -278.393
lradius 62.3724
lwrist 15.5917
lhand -54.1792 350.381
lfingers 7.12502
lthumb -26.5949 378.534
rfemur 136.466 -166.645 194.428
rtibia 77.9479
rfoot 35.5367 -7.90759
rtoes 13.3055
lfemur -57.0443 20.4833 -21.5502
ltibia 100.911
lfoot 29.9997 9.30013
ltoes 8.06936
249
root 14.014 1.64921 0.643077 -640.359 -87.9831 -164.267
lowerback 59.7504 -4.48271 8.17676
upperback 15.1761 -4.87174 -2.7907
thorax -4.61307 -3.72334 -4.43638
lowerneck 0.751303 6.1291 -4.44576
upperneck 0.792633 8.03348 -6.21538
head 0.207352 3.9264 -1.17677
rclavicle 5.14355e-015 2.63887e-014
rhumerus -72.0562 19.3419 -103.318
rradius 51.7298
rwrist 9.50101
rhand -58.1334 -313.554
rfingers 7.12502
rthumb -30.3732 -341.073
lclavicle 5.14355e-015 2.63887e-014
lhumerus -415.143 6.22658 -278.862
lradius 62.7941
lwrist 14.9331
lhand -52.6252 350.382
lfingers 7.12502
lthumb -25.1067 378.751
rfemur 136.715 -166.92 194.402
rtibia 77.7677
rfoot 35.0921 -8.07029
rtoes 13.2325
lfemur -56.5222 20.4141 -21.1982
ltibia 100.34
lfoot 29.8626 9.26306
ltoes 8.11435
250
root 14.0135 1.64574 0.640077 -636.275 -88.007 -168.57
lowerback 59.4009 -4.44037 8.16675
upperback 15.233 -4.8404 -2.81124
thorax -4.54241 -3.69792 -4.48068
lowerneck 0.934746 6.27498 -4.2934
upperneck 0.988321 8.22765 -6.39016
head 0.253796 4.01684 -1.25737
rclavicle 1.26477e-014 2.74323e-014
rhumerus -71.3471 19.8643 -102.763
rradius 52.1622
rwrist 8.92395
rhand -57.5861 -315.761
rfingers 7.12502
rthumb -29.8509 -343.375
lclavicle 1.26477e-014 2.74323e-014
lhumerus -414.661 6.16783 -279.287
lradius 63.1796
lwrist 14.3347
lhand -50.8795 350.189
lfingers 7.12502
lthumb -23.433 378.782
rfemur 136.984 -167.223 194.349
rtibia 77.5961
rfoot 34.7044 -8.22842
rtoes 13.4076
lfemur -55.9487 20.3517 -20.8447
ltibia 99.7474
lfoot 29.6677 9.23639
ltoes 8.15868
251
root 14.0145 1.6427 0.636603 -632.23 -87.9728 -172.843
lowerback 59.0676 -4.41432 8.17408
upperback 15.2503 -4.81026 -2.82834
thorax -4.51512 -3.67169 -4.52521
lowerneck 1.21298 6.43906 -4.1418
upperneck 1.18224 8.43976 -6.54744
head 0.284416 4.11812 -1.33625
rclavicle -4.17448e-015 -3.86636e-014
rhumerus -70.5717 20.3778 -102.251
rradius 52.5398
rwrist 8.34926
rhand -56.9374 -318.098
rfingers 7.12502
rthumb -29.2317 -345.821
lclavicle -4.17448e-015 -3.86636e-014
lhumerus -414.208 5.87306 -279.595
lradius 63.5716
lwrist 13.9714
lhand -49.0938 350.046
lfingers 7.12502
lthumb -21.7191 378.848
rfemur 137.289 -167.53 194.362
rtibia 77.3974
rfoot 34.3208 -8.4238
rtoes 13.6298
lfemur -55.3635 20.2722 -20.4224
ltibia 99.1541
lfoot 29.4661 9.20452
ltoes 8.36127
252
root 14.0162 1.6389 0.633921 -628.082 -87.957 -177.228
lowerback 58.6913 -4.3763 8.16561
upperback 15.3121 -4.7854 -2.85225
thorax -4.43677 -3.64897 -4.57221
lowerneck 1.4736 6.59478 -4.00911
upperneck 1.35825 8.64132 -6.68146
head 0.311093 4.21474 -1.40506
rclavicle 1.69215e-014 2.67365e-014
rhumerus -69.5507 20.8487 -101.669
rradius 52.8018
rwrist 7.65937
rhand -56.1141 -320.26
rfingers 7.12502
rthumb -28.4453 -348.118
lclavicle 1.69215e-014 2.67365e-014
lhumerus -413.633 5.45783 -279.843
lradius 63.9529
lwrist 13.8005
lhand -47.2364 349.92
lfingers 7.12502
lthumb -19.9345 378.918
rfemur 137.593 -167.828 194.343
rtibia 77.2007
rfoot 34.0218 -8.45339
rtoes 13.7748
lfemur -54.7578 20.1576 -20.0386
ltibia 98.5494
lfoot 29.2127 9.16937
ltoes 8.6526
253
root 14.0201 1.63516 0.631027 -624.124 -87.8977 -181.452
lowerback 58.352 -4.34457 8.16614
upperback 15.3562 -4.7596 -2.87019
thorax -4.37722 -3.627 -4.61489
lowerneck 1.75882 6.761 -3.8611
upperneck 1.5533 8.85757 -6.80619
head 0.340774 4.31863 -1.47438
rclavicle -5.1684e-015 3.32964e-014
rhumerus -68.4441 21.2545 -101.077
rradius 53.0272
rwrist 6.93715
rhand -55.1531 -322.22
rfingers 7.12502
rthumb -27.5266 -350.227
lclavicle -5.1684e-015 3.32964e-014
lhumerus -413.068 5.02709 -280.089
lradius 64.3603
lwrist 13.7312
lhand -45.2732 349.781
lfingers 7.12502
lthumb -18.0465 378.964
rfemur 137.949 -168.131 194.366
rtibia 76.9764
rfoot 33.7606 -8.52389
rtoes 14.0176
lfemur -54.1168 20.0148 -19.6102
ltibia 97.9368
lfoot 28.9693 9.10383
ltoes 9.02206
254
root 14.0253 1.63225 0.62854 -620.13 -87.8421 -185.715
lowerback 57.9665 -4.30329 8.16795
upperback 15.4276 -4.72742 -2.89835
thorax -4.28491 -3.60024 -4.67519
lowerneck 2.11679 6.91079 -3.68724
upperneck 1.70695 9.04574 -6.93213
head 0.347052 4.41205 -1.55238
rclavicle 1.2921e-014 3.926e-014
rhumerus -67.255 21.5592 -100.468
rradius 53.233
rwrist 6.05281
rhand -54.0606 -323.906
rfingers 7.12502
rthumb -26.4813 -352.075
lclavicle 1.2921e-014 3.926e-014
lhumerus -412.431 4.4853 -280.31
lradius 64.7162
lwrist 13.8022
lhand -43.2648 349.718
lfingers 7.12502
lthumb -16.1134 379.068
rfemur 138.296 -168.412 194.39
rtibia 76.756
rfoot 33.6195 -8.34432
rtoes 13.9268
lfemur -53.4471 19.849 -19.1959
ltibia 97.3017
lfoot 28.67 9.06828
ltoes 9.56007
255
root 14.0299 1.62805 0.625272 -616.52 -87.7437 -189.612
lowerback 57.5967 -4.24913 8.14005
upperback 15.4839 -4.69304 -2.88993
thorax -4.20471 -3.57809 -4.68205
lowerneck 2.57228 7.0751 -3.54443
upperneck 1.80194 9.24136 -7.09164
head 0.320098 4.5125 -1.64181
rclavicle -1.12313e-014 -9.62118e-014
rhumerus -66.0594 21.9077 -99.8866
rradius 53.4426
rwrist 4.99016
rhand -52.8537 -325.481
rfingers 7.12502
rthumb -25.3256 -353.819
lclavicle -1.12313e-014 -9.62118e-014
lhumerus -411.765 4.0377 -280.525
lradius 64.9474
lwrist 13.9285
lhand -41.2545 349.604
lfingers 7.12502
lthumb -14.1769 379.1
rfemur 138.674 -168.709 194.456
rtibia 76.5183
rfoot 33.4564 -8.28565
rtoes 13.8272
lfemur -52.769 19.6992 -18.7368
ltibia 96.6685
lfoot 28.3656 9.00289
ltoes 9.92788
256
root 14.0355 1.62346 0.62258 -613.448 -87.671 -192.978
lowerback 57.2228 -4.2006 8.09476
upperback 15.5421 -4.67471 -2.88024
thorax -4.12266 -3.56452 -4.67338
lowerneck 3.04147 7.24785 -3.45412
upperneck 1.90892 9.44687 -7.18679
head 0.289624 4.61784 -1.70391
rclavicle 1.75427e-014 7.05686e-014
rhumerus -64.7828 22.1407 -99.2358
rradius 53.6088
rwrist 3.89437
rhand -51.5483 -326.785
rfingers 7.12502
rthumb -24.0745 -355.294
lclavicle 1.75427e-014 7.05686e-014
lhumerus -411 3.53718 -280.724
lradius 65.0398
lwrist 14.1525
lhand -39.2261 349.472
lfingers 7.12502
lthumb -12.2217 379.095
rfemur 139.056 -168.98 194.494
rtibia 76.2869
rfoot 33.3398 -8.08854
rtoes 13.4384
lfemur -52.0708 19.4974 -18.3234
ltibia 96.013
lfoot 28.0666 8.90424
ltoes 10.2022
257
root 14.0412 1.61902 0.620298 -610.273 -87.5515 -196.451
lowerback 56.8144 -4.14975 8.07994
upperback 15.6185 -4.64135 -2.88449
thorax -4.01673 -3.54065 -4.70195
lowerneck 3.59264 7.39854 -3.27875
upperneck 1.97345 9.61887 -7.33005
head 0.238517 4.71055 -1.80021
rclavicle 9.88954e-015 4.51241e-014
rhumerus -63.3792 22.2496 -98.6005
rradius 53.6419
rwrist 2.70675
rhand -50.2364 -328.031
rfingers 7.12502
rthumb -22.816 -356.702
lclavicle 9.88954e-015 4.51241e-014
lhumerus -410.131 3.02415 -280.944
lradius 65.0423
lwrist 14.3421
lhand -37.2547 349.413
lfingers 7.12502
lthumb -10.3203 379.139
rfemur 139.452 -169.266 194.566
rtibia 76.0374
rfoot 33.2552 -7.97303
rtoes 13.3298
lfemur -51.3679 19.3191 -17.8685
ltibia 95.3559
lfoot 27.7215 8.79204
ltoes 10.3573
